#!OML:ASF F:\VICON\USERDATA\INSTALL\rory3\rory3.ASF
:FULLY-SPECIFIED
:DEGREES
1072
root 13.4027 17.8427 2.65206 371.066 -75.8905 357.263
lowerback 3.64297 -1.4484 -0.628085
upperback 0.318987 -1.93415 3.93935
thorax -1.55752 -0.972813 4.51134
lowerneck -11.3474 -7.13476 -12.5584
upperneck 38.4875 -10.7032 3.69495
head 16.7558 -6.28642 1.78762
rclavicle 2.44505e-014 9.54166e-015
rhumerus -28.1429 0.285375 -80.9433
rradius 35.165
rwrist 25.7729
rhand -18.5977 7.31536
rfingers 7.12502
rthumb 7.69349 -22.5247
lclavicle 2.44505e-014 9.54166e-015
lhumerus -32.4638 5.45558 85.1707
lradius 42.8547
lwrist -6.95158
lhand -13.9206 22.3973
lfingers 7.12502
lthumb 12.2057 52.0211
rfemur -10.2947 0.017416 21.6026
rtibia 26.228
rfoot -24.7321 -9.80308
rtoes 2.31368
lfemur -23.9896 7.16451 -18.5751
ltibia 26.7866
lfoot -8.11602 27.2275
ltoes 6.08321
1073
root 13.4355 17.8466 2.60077 371.578 -76.2189 356.909
lowerback 3.63715 -1.55495 -0.406515
upperback 0.326537 -2.06886 3.94151
thorax -1.5431 -1.04239 4.39367
lowerneck -11.5016 -7.00467 -12.3783
upperneck 38.5663 -10.5264 3.63305
head 16.7929 -6.19839 1.7574
rclavicle 3.00165e-014 -3.89618e-014
rhumerus -28.0026 0.297623 -80.9731
rradius 35.1437
rwrist 25.6039
rhand -18.3926 7.90709
rfingers 7.12502
rthumb 7.89142 -21.9256
lclavicle 3.00165e-014 -3.89618e-014
lhumerus -32.4455 5.43572 85.2641
lradius 42.863
lwrist -6.82586
lhand -13.6522 22.4844
lfingers 7.12502
lthumb 12.4644 52.0927
rfemur -10.6541 0.214992 21.6915
rtibia 26.2149
rfoot -24.4778 -9.05916
rtoes 4.16832
lfemur -24.2361 6.76305 -18.2782
ltibia 26.7513
lfoot -8.19874 27.7016
ltoes 6.83819
1074
root 13.4659 17.8519 2.54703 371.856 -76.4814 356.8
lowerback 3.62594 -1.66942 -0.288993
upperback 0.314733 -2.21745 3.96529
thorax -1.54075 -1.11781 4.35842
lowerneck -11.6277 -6.91298 -12.2378
upperneck 38.6051 -10.387 3.54945
head 16.8089 -6.133 1.71825
rclavicle 6.75868e-015 1.74931e-014
rhumerus -28.0291 0.864842 -81.1026
rradius 35.3404
rwrist 24.936
rhand -18.2403 7.80202
rfingers 7.12502
rthumb 8.03839 -22.0251
lclavicle 6.75868e-015 1.74931e-014
lhumerus -32.3703 5.33379 85.4704
lradius 42.7646
lwrist -6.81034
lhand -13.6344 22.6038
lfingers 7.12502
lthumb 12.4816 52.211
rfemur -11.0355 0.225555 21.7784
rtibia 26.2228
rfoot -24.1919 -8.66424
rtoes 4.05402
lfemur -24.4954 6.54952 -18.053
ltibia 26.747
lfoot -8.43554 27.9449
ltoes 8.26128
1075
root 13.4894 17.8556 2.49609 372.349 -76.82 356.319
lowerback 3.67916 -1.73012 -0.0579643
upperback 0.359189 -2.29107 3.97958
thorax -1.52756 -1.15742 4.24689
lowerneck -11.7154 -6.79691 -12.302
upperneck 38.6939 -10.2433 3.65535
head 16.8748 -6.07423 1.79889
rclavicle -7.7526e-015 -5.56597e-015
rhumerus -28.1666 1.70709 -81.2902
rradius 35.6804
rwrist 23.9052
rhand -18.2687 7.19529
rfingers 7.12502
rthumb 8.01099 -22.6329
lclavicle -7.7526e-015 -5.56597e-015
lhumerus -32.317 5.49088 85.614
lradius 42.6501
lwrist -7.01858
lhand -13.6941 22.5852
lfingers 7.12502
lthumb 12.4241 52.1959
rfemur -11.2438 0.0359084 21.951
rtibia 26.2585
rfoot -23.7134 -8.3268
rtoes 2.44161
lfemur -24.5479 6.57403 -17.7605
ltibia 26.7481
lfoot -8.89528 27.9984
ltoes 9.95051
1076
root 13.5121 17.8574 2.4522 372.637 -77.2663 355.945
lowerback 3.84486 -1.73893 0.14026
upperback 0.405399 -2.29398 3.98581
thorax -1.58012 -1.16066 4.1469
lowerneck -11.7673 -6.66788 -12.3317
upperneck 38.8345 -10.0981 3.73965
head 16.9549 -6.01656 1.86577
rclavicle -5.96354e-015 1.43125e-014
rhumerus -28.2326 2.07258 -81.2559
rradius 35.8674
rwrist 23.6501
rhand -18.2904 6.56311
rfingers 7.12502
rthumb 7.99005 -23.2659
lclavicle -5.96354e-015 1.43125e-014
lhumerus -32.3802 5.62547 85.7343
lradius 42.586
lwrist -7.34562
lhand -13.5434 22.4837
lfingers 7.12502
lthumb 12.5693 52.0856
rfemur -11.3455 -0.0509775 22.027
rtibia 26.3059
rfoot -23.2923 -7.78161
rtoes 2.22422
lfemur -24.4632 6.36382 -17.5024
ltibia 26.7778
lfoot -9.61316 28.3687
ltoes 11.5282
1077
root 13.5383 17.858 2.4032 372.575 -77.7153 356.124
lowerback 3.86418 -1.77492 0.0785156
upperback 0.387301 -2.34383 4.02783
thorax -1.60183 -1.18519 4.22919
lowerneck -11.8135 -6.56153 -12.2524
upperneck 38.938 -9.91607 3.58314
head 16.9822 -5.95772 1.81465
rclavicle -1.66979e-014 -3.18055e-014
rhumerus -28.1163 1.6971 -80.8852
rradius 35.8094
rwrist 24.7676
rhand -17.9224 6.38404
rfingers 7.12502
rthumb 8.34519 -23.4311
lclavicle -1.66979e-014 -3.18055e-014
lhumerus -32.4579 5.82379 85.8803
lradius 42.4783
lwrist -7.78411
lhand -13.3 22.4582
lfingers 7.12502
lthumb 12.804 52.0456
rfemur -11.7241 -0.390914 22.0482
rtibia 26.3892
rfoot -22.7241 -7.40139
rtoes 1.19626
lfemur -24.6188 6.37294 -17.4452
ltibia 26.8091
lfoot -10.0252 28.6186
ltoes 12.0051
1078
root 13.5605 17.8557 2.35206 372.554 -78.1371 356.227
lowerback 3.82826 -1.81536 0.00469982
upperback 0.428088 -2.4038 4.06394
thorax -1.53081 -1.21643 4.30879
lowerneck -11.8518 -6.47776 -12.1471
upperneck 38.958 -9.76838 3.44444
head 16.9657 -5.90306 1.76177
rclavicle 2.32578e-014 1.11319e-014
rhumerus -27.9274 1.33735 -80.5561
rradius 35.7389
rwrist 25.4666
rhand -17.4494 6.61022
rfingers 7.12502
rthumb 8.80165 -23.1862
lclavicle 2.32578e-014 1.11319e-014
lhumerus -32.45 6.1416 85.9886
lradius 42.3226
lwrist -8.30735
lhand -12.9602 22.1403
lfingers 7.12502
lthumb 13.1316 51.7069
rfemur -12.098 -0.724942 22.1532
rtibia 26.5346
rfoot -22.1971 -7.26457
rtoes -0.831393
lfemur -24.7035 6.30608 -17.3261
ltibia 26.7931
lfoot -10.2941 28.8611
ltoes 12.2066
1079
root 13.5845 17.8519 2.30052 372.49 -78.5419 356.322
lowerback 3.91944 -1.87514 -0.0867263
upperback 0.442885 -2.48634 4.0894
thorax -1.5555 -1.25742 4.39432
lowerneck -11.8533 -6.34054 -11.9584
upperneck 38.9366 -9.55748 3.29669
head 16.9026 -5.81244 1.70528
rclavicle 1.2921e-014 -2.8625e-014
rhumerus -27.9006 1.66526 -80.5886
rradius 35.774
rwrist 24.7044
rhand -17.3136 6.71551
rfingers 7.12502
rthumb 8.93269 -23.0754
lclavicle 1.2921e-014 -2.8625e-014
lhumerus -32.5393 6.39579 86.0185
lradius 42.209
lwrist -8.80113
lhand -12.6074 21.8138
lfingers 7.12502
lthumb 13.4716 51.3581
rfemur -12.3991 -0.6088 22.258
rtibia 26.7407
rfoot -21.9746 -7.33023
rtoes -2.02725
lfemur -24.7217 6.42094 -17.2562
ltibia 26.734
lfoot -10.0215 28.7479
ltoes 11.2043
1080
root 13.6066 17.8491 2.26073 372.236 -78.9505 356.634
lowerback 3.94024 -1.93955 -0.150079
upperback 0.47523 -2.57626 4.11346
thorax -1.52307 -1.3032 4.45944
lowerneck -11.9345 -6.17313 -11.7605
upperneck 38.9174 -9.29097 3.15919
head 16.8556 -5.69357 1.65957
rclavicle -4.96962e-014 4.45278e-014
rhumerus -27.8493 2.0544 -80.6473
rradius 35.784
rwrist 23.632
rhand -17.013 7.12734
rfingers 7.12502
rthumb 9.2228 -22.651
lclavicle -4.96962e-014 4.45278e-014
lhumerus -32.5079 6.75771 86.0503
lradius 41.9494
lwrist -9.5018
lhand -12.436 21.5282
lfingers 7.12502
lthumb 13.6368 51.0615
rfemur -12.7247 -0.385856 22.2251
rtibia 26.9991
rfoot -21.9778 -7.0665
rtoes -1.46747
lfemur -24.727 6.21977 -17.2214
ltibia 26.6484
lfoot -9.76456 28.5672
ltoes 9.94883
1081
root 13.6302 17.8467 2.21987 371.086 -79.3499 357.919
lowerback 3.91403 -1.96644 -0.447688
upperback 0.480394 -2.62499 4.1416
thorax -1.48461 -1.32649 4.65813
lowerneck -12.0347 -6.06217 -11.7728
upperneck 38.9825 -9.1213 3.16425
head 16.898 -5.62803 1.69176
rclavicle 4.6118e-014 -4.53229e-014
rhumerus -27.7941 2.02979 -80.4385
rradius 35.7646
rwrist 23.2321
rhand -16.7719 7.65677
rfingers 7.12502
rthumb 9.45545 -22.1111
lclavicle 4.6118e-014 -4.53229e-014
lhumerus -32.4325 6.59325 86.3328
lradius 41.6654
lwrist -9.75704
lhand -12.5441 21.6055
lfingers 7.12502
lthumb 13.5326 51.1457
rfemur -13.147 -0.32555 22.0135
rtibia 27.2868
rfoot -21.9097 -6.75149
rtoes -1.34123
lfemur -24.8127 6.17021 -17.3717
ltibia 26.5222
lfoot -9.48935 27.9412
ltoes 8.33828
1082
root 13.6542 17.8437 2.17711 369.222 -79.8705 359.946
lowerback 3.88652 -1.91998 -0.845508
upperback 0.460814 -2.57799 4.11233
thorax -1.47711 -1.29983 4.85018
lowerneck -12.0893 -6.01331 -11.936
upperneck 39.0796 -9.05142 3.25215
head 16.9756 -5.6167 1.7682
rclavicle 2.50469e-014 -7.95139e-015
rhumerus -27.8223 1.89882 -80.1535
rradius 35.8407
rwrist 23.0996
rhand -16.8771 7.62046
rfingers 7.12502
rthumb 9.35391 -22.152
lclavicle 2.50469e-014 -7.95139e-015
lhumerus -32.4584 5.66657 86.7892
lradius 41.4412
lwrist -9.48696
lhand -13.1817 21.9266
lfingers 7.12502
lthumb 12.9181 51.5068
rfemur -13.5955 -0.265515 21.682
rtibia 27.5455
rfoot -21.6885 -6.48642
rtoes -1.91406
lfemur -24.8814 6.19082 -17.632
ltibia 26.3857
lfoot -9.53048 27.2693
ltoes 7.16256
1083
root 13.6773 17.8458 2.13575 368.427 -80.312 360.812
lowerback 3.90802 -1.94002 -0.983661
upperback 0.463826 -2.61046 4.13382
thorax -1.47595 -1.31557 4.95335
lowerneck -12.1353 -5.8933 -12.0616
upperneck 39.1791 -8.87285 3.30989
head 17.0346 -5.56178 1.8465
rclavicle -7.35503e-015 1.98785e-014
rhumerus -27.8414 1.67699 -79.8323
rradius 35.965
rwrist 23.6975
rhand -17.3911 7.12659
rfingers 7.12502
rthumb 8.85792 -22.6675
lclavicle -7.35503e-015 1.98785e-014
lhumerus -32.5505 5.23918 87.0531
lradius 41.2344
lwrist -9.58197
lhand -13.7106 22.3553
lfingers 7.12502
lthumb 12.4082 51.967
rfemur -13.9222 -0.176884 21.6185
rtibia 27.7604
rfoot -21.4228 -6.41434
rtoes -3.23869
lfemur -24.8581 5.77365 -17.5175
ltibia 26.264
lfoot -9.98567 26.7744
ltoes 6.93328
1084
root 13.6972 17.849 2.09351 368.819 -80.5894 360.446
lowerback 3.94282 -2.03748 -0.929851
upperback 0.48632 -2.73989 4.20047
thorax -1.45951 -1.38227 4.99926
lowerneck -12.2088 -5.73849 -11.8586
upperneck 39.2095 -8.62521 3.138
head 17.0138 -5.4571 1.77968
rclavicle -3.97569e-016 -4.13472e-014
rhumerus -27.7911 1.25896 -79.445
rradius 36.0827
rwrist 25.0996
rhand -17.7694 6.31658
rfingers 7.12502
rthumb 8.49288 -23.4926
lclavicle -3.97569e-016 -4.13472e-014
lhumerus -32.6097 5.33362 87.1207
lradius 41.0001
lwrist -10.0706
lhand -13.6789 22.5476
lfingers 7.12502
lthumb 12.4387 52.1575
rfemur -14.1714 0.00528889 21.7965
rtibia 27.9378
rfoot -21.3244 -6.4236
rtoes -3.87945
lfemur -24.8233 5.26663 -17.1418
ltibia 26.144
lfoot -10.0126 26.0172
ltoes 6.1193
1085
root 13.717 17.8486 2.05315 368.82 -80.8849 360.423
lowerback 4.00677 -2.06417 -0.880298
upperback 0.540896 -2.7752 4.2022
thorax -1.43808 -1.40173 4.97591
lowerneck -12.2749 -5.66272 -11.6179
upperneck 39.2068 -8.51043 2.98185
head 16.9874 -5.3957 1.68871
rclavicle -1.35174e-014 1.19271e-014
rhumerus -27.8118 1.29401 -79.2726
rradius 36.271
rwrist 25.0376
rhand -17.3232 6.1341
rfingers 7.12502
rthumb 8.92347 -23.6572
lclavicle -1.35174e-014 1.19271e-014
lhumerus -32.5328 5.04657 87.2209
lradius 40.7115
lwrist -10.2711
lhand -13.5743 22.613
lfingers 7.12502
lthumb 12.5395 52.2167
rfemur -14.3136 0.195723 21.8819
rtibia 28.0311
rfoot -21.26 -6.26063
rtoes -3.45493
lfemur -24.7631 4.99641 -16.9008
ltibia 26.0723
lfoot -9.74836 24.7814
ltoes 5.12801
1086
root 13.7371 17.8457 2.01525 367.995 -81.2641 361.171
lowerback 4.14003 -2.06117 -0.965295
upperback 0.605766 -2.77615 4.22514
thorax -1.44055 -1.40326 5.05257
lowerneck -12.3018 -5.59209 -11.7443
upperneck 39.1596 -8.37316 3.02409
head 16.9653 -5.35178 1.75483
rclavicle 4.94974e-014 -4.85035e-014
rhumerus -27.9233 2.411 -79.4348
rradius 36.4803
rwrist 22.4429
rhand -18.1288 5.37962
rfingers 7.12502
rthumb 8.14602 -24.4434
lclavicle 4.94974e-014 -4.85035e-014
lhumerus -32.436 4.96379 87.3555
lradius 40.3397
lwrist -10.6116
lhand -13.343 22.4353
lfingers 7.12502
lthumb 12.7625 52.0252
rfemur -14.3604 0.376393 21.8041
rtibia 28.0891
rfoot -21.2418 -5.85174
rtoes -2.05314
lfemur -24.6537 4.85553 -16.8251
ltibia 26.0334
lfoot -9.49335 23.2201
ltoes 3.65858
